<svg version="1.1" id="Icon_Set" xmlns="http://www.w3.org/2000/svg" x="0" y="0" viewBox="0 0 512 512" style="enable-background:new 0 0 512 512" xml:space="preserve"><style>.st0{fill:#4c4372}.st4{fill:#d3e6f8}.st5{fill:#a4cff2}</style><circle cx="256" cy="256" r="207" style="fill:#f0c48a"/><path d="M475.007 94.393H36.993c-17.193 0-31.13 13.938-31.13 31.131v157.244c0 17.193 13.938 31.131 31.13 31.131h438.014c17.192 0 31.13-13.938 31.13-31.131V125.523c0-17.193-13.938-31.13-31.13-31.13z" style="fill:#fff"/><path class="st4" d="M475.007 94.393H444.48v219.506h30.527c17.192 0 31.13-13.938 31.13-31.13V125.523c0-17.192-13.938-31.13-31.13-31.13z"/><circle class="st4" cx="373.923" cy="126.225" r="13.596"/><circle class="st5" cx="418.096" cy="126.225" r="13.596"/><circle cx="462.269" cy="126.225" r="13.597" style="fill:#fd919e"/><path class="st5" d="M87.5 244.953h337v68.945h-337z"/><path style="fill:#7babf1" d="M367.841 244.953H424.5v68.945h-56.659z"/><path class="st0" d="M475.007 319.761H36.993C16.595 319.761 0 303.166 0 282.769V125.522C0 105.125 16.595 88.53 36.993 88.53h438.014c20.398 0 36.993 16.595 36.993 36.992v157.246c0 20.398-16.595 36.993-36.993 36.993zM36.993 100.256c-13.933 0-25.268 11.335-25.268 25.267v157.246c0 13.932 11.335 25.267 25.268 25.267h438.014c13.933 0 25.268-11.335 25.268-25.267V125.522c0-13.932-11.335-25.267-25.268-25.267H36.993z"/><path class="st0" d="M506.137 163.157H5.862a5.863 5.863 0 0 1 0-11.724h500.274a5.863 5.863 0 0 1 .001 11.724zM424.5 319.761h-337a5.863 5.863 0 0 1-5.863-5.863v-68.944a5.863 5.863 0 0 1 5.863-5.862h337a5.862 5.862 0 0 1 5.862 5.862v68.944a5.862 5.862 0 0 1-5.862 5.863zM93.362 308.035h325.274v-57.22H93.362v57.22z"/><path class="st0" d="M424.5 285.288h-337a5.863 5.863 0 1 1 0-11.724h337a5.862 5.862 0 1 1 0 11.724zM373.924 145.684c-10.729 0-19.459-8.729-19.459-19.459s8.729-19.459 19.459-19.459 19.459 8.729 19.459 19.459c0 10.729-8.73 19.459-19.459 19.459zm0-27.194c-4.265 0-7.733 3.47-7.733 7.734 0 4.264 3.469 7.733 7.733 7.733 4.264 0 7.733-3.47 7.733-7.733 0-4.264-3.469-7.734-7.733-7.734zM418.097 145.684c-10.73 0-19.46-8.729-19.46-19.459s8.73-19.459 19.46-19.459c10.729 0 19.458 8.729 19.458 19.459 0 10.729-8.729 19.459-19.458 19.459zm0-27.194c-4.265 0-7.734 3.47-7.734 7.734 0 4.264 3.47 7.733 7.734 7.733 4.264 0 7.733-3.47 7.733-7.733 0-4.264-3.47-7.734-7.733-7.734zM462.269 145.684c-10.729 0-19.459-8.729-19.459-19.459s8.729-19.459 19.459-19.459c10.729 0 19.459 8.729 19.459 19.459 0 10.729-8.73 19.459-19.459 19.459zm0-27.194c-4.265 0-7.733 3.47-7.733 7.734 0 4.264 3.469 7.733 7.733 7.733 4.265 0 7.733-3.47 7.733-7.733 0-4.264-3.469-7.734-7.733-7.734zM119.44 423.47a5.864 5.864 0 0 1-5.218-8.527l9.312-18.27a10.564 10.564 0 0 0 .639-8.115 10.569 10.569 0 0 0-5.286-6.191 22.212 22.212 0 0 1-11.114-13.015 22.22 22.22 0 0 1 1.345-17.063l8.562-16.801a5.859 5.859 0 0 1 7.885-2.561 5.863 5.863 0 0 1 2.562 7.886l-8.563 16.8a10.564 10.564 0 0 0-.639 8.115 10.564 10.564 0 0 0 5.287 6.191 22.214 22.214 0 0 1 11.114 13.016 22.217 22.217 0 0 1-1.344 17.062l-9.312 18.271a5.867 5.867 0 0 1-5.23 3.202zM187.951 423.47a5.863 5.863 0 0 1-5.219-8.527l9.311-18.27a10.564 10.564 0 0 0 .639-8.115 10.564 10.564 0 0 0-5.287-6.191 22.215 22.215 0 0 1-11.114-13.015 22.22 22.22 0 0 1 1.344-17.063l8.563-16.801a5.859 5.859 0 0 1 7.885-2.561 5.863 5.863 0 0 1 2.561 7.886l-8.561 16.8a10.564 10.564 0 0 0-.64 8.115 10.566 10.566 0 0 0 5.286 6.191 22.208 22.208 0 0 1 11.114 13.016 22.213 22.213 0 0 1-1.345 17.062l-9.311 18.271a5.856 5.856 0 0 1-5.226 3.202zM256.461 423.47a5.862 5.862 0 0 1-5.218-8.527l9.311-18.27a10.564 10.564 0 0 0 .64-8.115 10.569 10.569 0 0 0-5.286-6.191 22.212 22.212 0 0 1-11.114-13.015 22.22 22.22 0 0 1 1.344-17.063l8.562-16.801a5.864 5.864 0 0 1 10.448 5.325l-8.563 16.8a10.569 10.569 0 0 0-.64 8.115 10.566 10.566 0 0 0 5.286 6.191 22.213 22.213 0 0 1 11.115 13.016A22.213 22.213 0 0 1 271 401.997l-9.31 18.271a5.864 5.864 0 0 1-5.229 3.202zM324.971 423.47a5.864 5.864 0 0 1-5.218-8.527l9.312-18.27a10.564 10.564 0 0 0 .639-8.115 10.565 10.565 0 0 0-5.286-6.191 22.212 22.212 0 0 1-11.114-13.015 22.22 22.22 0 0 1 1.345-17.063l8.563-16.801a5.858 5.858 0 0 1 7.885-2.561 5.863 5.863 0 0 1 2.562 7.886l-8.563 16.8a10.564 10.564 0 0 0-.639 8.115 10.564 10.564 0 0 0 5.285 6.191 22.213 22.213 0 0 1 11.115 13.016 22.217 22.217 0 0 1-1.345 17.062l-9.312 18.271a5.865 5.865 0 0 1-5.229 3.202zM393.481 423.47a5.862 5.862 0 0 1-5.218-8.527l9.311-18.27a10.564 10.564 0 0 0 .64-8.115 10.572 10.572 0 0 0-5.286-6.191 22.209 22.209 0 0 1-11.114-13.015 22.21 22.21 0 0 1 1.345-17.063l8.561-16.801a5.86 5.86 0 0 1 7.886-2.561 5.862 5.862 0 0 1 2.56 7.886l-8.561 16.8a10.564 10.564 0 0 0-.64 8.115 10.566 10.566 0 0 0 5.286 6.191 22.218 22.218 0 0 1 11.114 13.016 22.213 22.213 0 0 1-1.345 17.062l-9.311 18.271a5.862 5.862 0 0 1-5.228 3.202z"/></svg>