<svg xmlns="http://www.w3.org/2000/svg" viewBox="0 0 48 48"><defs><style>.cls-1{fill:#425b72}.cls-2{fill:#374f68}.cls-5{fill:#c6c3d8}.cls-6{fill:#6fabe6}.cls-7{fill:#db5669}</style></defs><g id="Home_and_Wiring" data-name="Home and Wiring"><path class="cls-1" d="m47 19-2 4-21-13L3 23l-2-4L24 5z"/><path class="cls-2" d="M14 2v9.09l-6 3.65V2z"/><path style="fill:#2c435e" d="M8 2h4v3H8z"/><path class="cls-1" d="M14 5v6.09l-2 1.22V5h2z"/><path class="cls-2" d="M12 2h2v3h-2z"/><path class="cls-2" d="M14 3H8a1 1 0 0 1 0-2h6a1 1 0 0 1 0 2z"/><path class="cls-1" d="M15 2H9a1 1 0 0 1-1-1h6a1 1 0 0 1 1 1z"/><path d="M40 19.9V45a2 2 0 0 1-2 2H10a2 2 0 0 1-2-2V19.91L24 10z" style="fill:#dad7e5"/><path class="cls-5" d="M40 44v1a2 2 0 0 1-2 2H10a2 2 0 0 1-2-1.8V20h3v20a4 4 0 0 0 4 4z"/><path class="cls-2" d="M19 32v-2a1 1 0 0 1 2 0v2a1 1 0 0 1-2 0zM27 32v-2a1 1 0 0 1 2 0v2a1 1 0 0 1-2 0z"/><path class="cls-6" d="M24 40v7h-4v-5a2 2 0 0 1-1.41-.59c-.79-.77-.59-.74-.59-9.41h4v6a2 2 0 0 1 2 2z"/><path class="cls-7" d="M30 32c0 8.55.2 8.64-.59 9.41A2 2 0 0 1 28 42v5h-4v-7a2 2 0 0 1 2-2v-6z"/><path class="cls-6" d="M22 23h-1v-1a1 1 0 0 0-2 0v1h-1a1 1 0 0 0 0 2h1v1a1 1 0 0 0 2 0v-1h1a1 1 0 0 0 0-2z"/><path class="cls-7" d="M30 25h-4a1 1 0 0 1 0-2h4a1 1 0 0 1 0 2z"/><path class="cls-2" d="m46 21-1 2-21-13L3 23l-1.47-2.93L23 7z"/><path class="cls-5" d="M40 19.9v3.62L23 13 8 22.29v-2.38L24 10z"/></g></svg>