<svg xmlns="http://www.w3.org/2000/svg" xml:space="preserve" width="655.359" height="655.359" style="shape-rendering:geometricPrecision;text-rendering:geometricPrecision;image-rendering:optimizeQuality;fill-rule:evenodd;clip-rule:evenodd" viewBox="0 0 6.827 6.827"><defs><style>.fil1{fill:#94d477}.fil7{fill:#97d47c}.fil16{fill:#9cd681}.fil17{fill:#a7db8f}.fil3{fill:#b0de9b}.fil2{fill:#b6e1a3}.fil14{fill:#bde4ac}.fil10{fill:#c4e6b4}.fil19{fill:#c5e7b5}.fil5{fill:#c7e8b8}.fil18{fill:#c9e9bb}.fil20{fill:#cfecc2}.fil22{fill:#d0ecc4}.fil23{fill:#d2ecc5}.fil25{fill:#d9efce}.fil34{fill:#5d7056;fill-rule:nonzero}</style></defs><g id="Layer_x0020_1"><g id="_469785192"><path id="_469789128" d="M3.413.103a3.31 3.31 0 1 1 0 6.62 3.31 3.31 0 0 1 0-6.62z" style="fill:#aad496"/><path id="_469789368" class="fil1" d="M.848 1.35.84 1.332c.008-.01.015-.02.023-.028l-.014.044z"/><path id="_469788960" class="fil2" d="m.103 3.424.074.129-.056.202a3.348 3.348 0 0 1-.018-.331z"/><path id="_469789440" class="fil3" d="m.177 3.553-.074-.13v-.01c0-.052.002-.103.004-.155l.07.295z"/><path id="_469789392" d="m1.187 5.863.777-.144-.09.625a3.318 3.318 0 0 1-.687-.48z" style="fill:#ccebbf"/><path id="_469789536" class="fil5" d="m.878 5.54.57-2.232.516 2.411-.777.144c-.11-.1-.213-.208-.31-.322z"/><path id="_469788480" d="M1.447 3.308.2 2.618c.019-.078.041-.156.066-.232l1.254-.278-.073 1.2z" style="fill:#b5e1a1"/><path id="_469788504" class="fil7" d="m.84 1.333.008.016-.025.004.016-.02z"/><path id="_469788168" d="m.823 1.353.025-.004-.185.222c.05-.075.104-.147.16-.218z" style="fill:#a3d989"/><path id="_469788816" d="m.663 1.571.185-.222.672.76-1.254.277c.095-.291.23-.565.397-.815z" style="fill:#abdc94"/><path id="_469788576" class="fil2" d="m.177 3.553-.07-.295c.01-.22.042-.433.093-.64l1.247.69-1.27.245z"/><path id="_469788552" class="fil10" d="m.207 4.238 1.24-.93-.57 2.233a3.3 3.3 0 0 1-.67-1.303z"/><path id="_469788720" d="m.12 3.755.057-.202 1.27-.245-1.24.93a3.298 3.298 0 0 1-.086-.483z" style="fill:#bee4ad"/><path id="_469788144" style="fill:#c5e8b6" d="M2.79 4.642 1.447 3.308l.888-.257z"/><path id="_469788096" style="fill:#b3e09e" d="m2.335 3.05-.815-.942.568-.979z"/><path id="_469788672" class="fil14" d="m1.447 3.308.073-1.2.815.943z"/><path id="_469788648" d="m4.67 2.622-.661-1.187 1.14-.84c.048.03.095.06.14.092l-.62 1.935z" style="fill:#a9dc92"/><path id="_469787400" class="fil16" d="m.848 1.35.014-.045a3.33 3.33 0 0 1 .565-.54l.66.364-1.239.22z"/><path id="_469787712" class="fil17" d="M1.52 2.108.848 1.35l1.24-.22z"/><path id="_469787688" class="fil7" d="M2.088 1.129 1.427.766c.2-.151.42-.28.652-.383l.009.746z"/><path id="_469787616" class="fil18" d="m1.964 5.72-.517-2.412L2.79 4.642z"/><path id="_469787568" class="fil19" d="m4.35 4.324-.868-.588L4.67 2.622z"/><path id="_469787664" class="fil20" d="m1.874 6.344.09-.625.602.895a3.29 3.29 0 0 1-.692-.27z"/><path id="_469787928" style="fill:#bae3a7" d="m3.482 3.736.527-2.301.66 1.187z"/><path id="_469787544" class="fil7" d="M2.088 1.129 2.079.383A3.29 3.29 0 0 1 2.436.25l1.087.23-1.435.649z"/><path id="_469788048" class="fil5" d="M2.79 4.642 2.335 3.05l1.147.685z"/><path id="_469787880" class="fil22" d="m3.626 6.662-1.662-.943.826-1.077z"/><path id="_469786656" class="fil23" d="m2.566 6.614-.602-.895 1.662.943-.117.06a3.364 3.364 0 0 1-.943-.108z"/><path id="_469786968" class="fil14" d="m3.482 3.736-1.147-.685L4.01 1.435z"/><path id="_469787016" class="fil3" d="M2.335 3.05 2.088 1.13l1.92.306z"/><path id="_469787160" style="fill:#a1d988" d="m4.009 1.435-1.921-.306L3.523.48z"/><path id="_469786608" class="fil25" d="m3.509 6.722.117-.06.027.053a3.354 3.354 0 0 1-.144.007z"/><path id="_469786824" style="fill:#d4edc9" d="m3.626 6.662-.836-2.02 1.467 1.652z"/><path id="_469786920" class="fil22" d="M4.257 6.294 2.79 4.642l1.56-.318z"/><path id="_469787064" d="m3.653 6.715-.027-.053.63-.368-.038.33a3.303 3.303 0 0 1-.565.09z" style="fill:#dbf0d1"/><path id="_469786728" class="fil18" d="m2.79 4.642.692-.906.867.588z"/><path id="_469786560" class="fil16" d="M4.009 1.435 3.523.48 4.878.444c.093.046.183.097.271.15l-1.14.841z"/><path id="_469787112" class="fil23" d="m4.257 6.294.092-1.97.971.636z"/><path id="_469786368" class="fil1" d="M3.523.48 2.436.25l.132-.038 2.177.17c.045.02.089.04.133.062L3.523.48z"/><path id="_469786296" d="M5.775 5.732 5.32 4.96l.672-.734.096 1.137c-.095.13-.2.254-.313.37z" style="fill:#d1ecc5"/><path id="_469786056" style="fill:#cceabe" d="m5.32 4.96-.97-.636 1.642-.098z"/><path id="_469786032" class="fil2" d="M5.992 4.226 4.67 2.622l1.412-1.166c.054.073.105.148.152.225l-.242 2.545z"/><path id="_469786440" class="fil17" d="M4.67 2.622 5.29.687c.305.21.573.47.792.769L4.67 2.622z"/><path id="_469786008" class="fil25" d="m4.962 6.34-.705-.046L5.32 4.96l.455.772a3.322 3.322 0 0 1-.813.607z"/><path id="_469786176" class="fil10" d="m4.35 4.324.32-1.702 1.322 1.604z"/><path id="_469786272" d="m4.218 6.625.039-.33.705.044c-.233.124-.482.22-.744.286z" style="fill:#dff3d7"/><path id="_469785816" d="m3.917.141-1.123.02a3.327 3.327 0 0 1 1.123-.02z" style="fill:#8ed16f"/><path id="_469785936" class="fil1" d="M4.745.382 2.568.212a3.3 3.3 0 0 1 .226-.05l1.123-.02c.29.044.568.126.828.24z"/><path id="_469785624" d="m5.992 4.226.242-2.545c.303.493.481 1.071.489 1.69l-.731.855z" style="fill:#b5e1a0"/><path id="_469785600" d="m5.992 4.226.73-.855.001.042c0 .224-.022.443-.064.655l-.667.158z" style="fill:#b8e3a6"/><path id="_469785528" class="fil20" d="m6.088 5.363-.096-1.137.488.435c-.102.25-.234.486-.392.702z"/><path id="_469785456" class="fil19" d="m6.48 4.66-.488-.434.667-.158a3.29 3.29 0 0 1-.18.593z"/><path id="_469785288" class="fil34" d="M3.413 0c.943 0 1.796.382 2.414 1 .618.617 1 1.47 1 2.413 0 .943-.382 1.796-1 2.414-.618.618-1.471 1-2.414 1a3.403 3.403 0 0 1-2.413-1 3.403 3.403 0 0 1-1-2.414C0 2.471.382 1.617 1 1c.617-.618 1.47-1 2.413-1zm2.268 1.146a3.196 3.196 0 0 0-2.268-.94c-.885 0-1.687.36-2.267.94-.58.58-.94 1.382-.94 2.267 0 .886.36 1.687.94 2.268.58.58 1.382.939 2.267.939.886 0 1.687-.36 2.268-.94.58-.58.939-1.381.939-2.267 0-.885-.36-1.687-.94-2.267z"/></g><path class="fil34" d="m1.535 3.343 1.436-.829.122-.07v.651h2.32V3.731H3.092v.652l-.121-.07-1.436-.83-.122-.07z"/></g></svg>