<svg xmlns="http://www.w3.org/2000/svg" xml:space="preserve" width="655.359" height="655.359" style="shape-rendering:geometricPrecision;text-rendering:geometricPrecision;image-rendering:optimizeQuality;fill-rule:evenodd;clip-rule:evenodd" viewBox="0 0 6.827 6.827"><defs><style>.fil1{fill:#81cacc}.fil7{fill:#86cccd}.fil15{fill:#8acdd0}.fil16{fill:#97d4d5}.fil3{fill:#a2d7da}.fil0{fill:#a5dadb}.fil2{fill:#aadbdd}.fil13{fill:#b2dee0}.fil10{fill:#b9e2e3}.fil18{fill:#bbe2e4}.fil5{fill:#bde4e4}.fil17{fill:#c0e4e5}.fil19{fill:#c6e7e8}.fil21{fill:#c8e7e9}.fil22{fill:#cae9ea}.fil24{fill:#d2ecec}.fil33{fill:#556d6e;fill-rule:nonzero}</style></defs><g id="Layer_x0020_1"><g id="_469789680"><path id="_480018096" class="fil0" d="M3.413.103a3.31 3.31 0 1 1 0 6.62 3.31 3.31 0 0 1 0-6.62z"/><path id="_480018648" class="fil1" d="m.849 1.35-.01-.018.025-.03-.015.049z"/><path id="_480018192" class="fil2" d="m.103 3.423.075.13-.057.205a3.347 3.347 0 0 1-.018-.335z"/><path id="_480018504" class="fil3" d="m.178 3.554-.075-.13v-.01c0-.053.002-.106.004-.158l.07.298z"/><path id="_480018432" d="m1.189 5.864.776-.144-.09.625a3.318 3.318 0 0 1-.686-.48z" style="fill:#c4e6e7"/><path id="_480017976" class="fil5" d="m.879 5.542.57-2.233.516 2.411-.776.144c-.11-.1-.214-.208-.31-.322z"/><path id="_480018144" d="m1.448 3.309-1.249-.69c.02-.078.042-.155.067-.231l1.254-.279-.072 1.2z" style="fill:#a8dbdc"/><path id="_480018240" class="fil7" d="m.84 1.332.009.019-.027.004.017-.023z"/><path id="_480018336" d="m.822 1.355.027-.004-.193.23c.052-.077.107-.153.166-.226z" style="fill:#92d1d3"/><path id="_480018288" d="M.656 1.582.85 1.35l.671.758-1.254.279c.093-.288.226-.559.39-.806z" style="fill:#9bd4d7"/><path id="_480018552" class="fil2" d="m.178 3.554-.07-.298c.01-.219.04-.431.091-.637l1.25.69-1.271.245z"/><path id="_480017520" class="fil10" d="m.207 4.24 1.241-.931-.57 2.233a3.3 3.3 0 0 1-.67-1.303z"/><path id="_480017232" d="m.121 3.758.057-.204 1.27-.245-1.24.93a3.298 3.298 0 0 1-.087-.48z" style="fill:#b3dfe0"/><path id="_480017304" style="fill:#bce3e4" d="M2.79 4.643 1.449 3.31l.888-.257z"/><path id="_480017664" class="fil0" d="m2.336 3.052-.816-.943.569-.979z"/><path id="_480017856" class="fil13" d="m1.448 3.309.072-1.2.816.943z"/><path id="_480017736" d="m4.67 2.623-.66-1.187 1.14-.84c.048.03.095.06.141.091l-.62 1.936z" style="fill:#9ad4d6"/><path id="_480017832" class="fil15" d="m.849 1.35.015-.048c.166-.2.354-.38.562-.536l.663.364-1.24.22z"/><path id="_480017352" class="fil16" d="M1.52 2.11.85 1.35l1.24-.22z"/><path id="_480017760" class="fil7" d="M2.089 1.13 1.426.766c.202-.151.42-.28.654-.383l.009.747z"/><path id="_480017592" class="fil17" d="M1.965 5.72 1.448 3.31l1.343 1.334z"/><path id="_469786776" class="fil18" d="m4.35 4.325-.867-.588L4.67 2.623z"/><path id="_469791144" class="fil19" d="m1.875 6.345.09-.625.601.894a3.29 3.29 0 0 1-.69-.27z"/><path id="_469785168" style="fill:#addcde" d="m3.483 3.737.526-2.3.661 1.186z"/><path id="_469776840" class="fil7" d="M2.089 1.13 2.08.383c.115-.05.233-.095.354-.132l1.09.23-1.435.65z"/><path id="_469798200" class="fil5" d="m2.79 4.643-.454-1.591 1.147.685z"/><path id="_469793208" class="fil21" d="M3.627 6.663 1.965 5.72l.826-1.077z"/><path id="_469791864" class="fil22" d="m2.566 6.614-.601-.894 1.662.943-.115.059a3.365 3.365 0 0 1-.946-.108z"/><path id="_469791888" class="fil13" d="m3.483 3.737-1.147-.685L4.01 1.436z"/><path id="_469791432" class="fil3" d="M2.336 3.052 2.09 1.13l1.92.306z"/><path id="_469791600" style="fill:#90d1d3" d="M4.01 1.436 2.088 1.13 3.524.481z"/><path id="_469791192" class="fil24" d="m3.512 6.722.115-.06.026.053a3.352 3.352 0 0 1-.14.007z"/><path id="_469791480" style="fill:#cceaeb" d="m3.627 6.663-.836-2.02 1.466 1.652z"/><path id="_469791360" class="fil21" d="M4.257 6.295 2.791 4.643l1.56-.318z"/><path id="_469791696" d="m3.653 6.715-.026-.052.63-.367-.038.328a3.304 3.304 0 0 1-.566.09z" style="fill:#d4edee"/><path id="_469791288" class="fil17" d="m2.79 4.643.693-.906.867.588z"/><path id="_469791648" class="fil15" d="M4.01 1.436 3.523.481 4.88.445c.093.046.183.097.27.15l-1.14.841z"/><path id="_469791120" class="fil22" d="m4.257 6.295.093-1.97.971.636z"/><path id="_469790832" class="fil1" d="m3.524.481-1.09-.23c.043-.014.087-.026.13-.038l2.184.17c.044.02.088.04.132.062L3.524.481z"/><path id="_469790688" d="m5.775 5.732-.454-.77.671-.735.097 1.135a3.33 3.33 0 0 1-.314.37z" style="fill:#c9e8e9"/><path id="_469790664" style="fill:#c3e5e7" d="m5.321 4.961-.97-.636 1.641-.098z"/><path id="_469790496" class="fil2" d="M5.992 4.227 4.67 2.623l1.413-1.166c.054.073.104.148.152.225l-.243 2.545z"/><path id="_469790976" class="fil16" d="M4.67 2.623 5.291.687c.305.21.573.471.792.77L4.67 2.623z"/><path id="_469790928" class="fil24" d="m4.96 6.34-.703-.044L5.321 4.96l.454.771a3.322 3.322 0 0 1-.815.608z"/><path id="_469791072" class="fil10" d="m4.35 4.325.32-1.702 1.322 1.604z"/><path id="_469790784" d="m4.22 6.624.037-.328.703.044c-.232.123-.48.22-.74.284z" style="fill:#daeff0"/><path id="_469790568" d="m3.924.143-1.137.02a3.327 3.327 0 0 1 1.137-.02z" style="fill:#79c7c9"/><path id="_469790856" class="fil1" d="M4.748.384 2.565.214c.073-.02.147-.037.222-.051l1.137-.02c.289.044.565.126.824.24z"/><path id="_469789632" d="m5.992 4.227.243-2.545c.303.493.48 1.072.488 1.692l-.73.853z" style="fill:#a7dadc"/><path id="_469790328" d="m5.992 4.227.73-.853.001.04c0 .224-.022.443-.065.655l-.666.158z" style="fill:#addcdd"/><path id="_469790184" class="fil19" d="m6.089 5.362-.097-1.135.488.434c-.102.25-.234.486-.391.701z"/><path id="_469790256" class="fil18" d="m6.48 4.661-.488-.434.666-.158a3.29 3.29 0 0 1-.178.592z"/><path id="_469789728" class="fil33" d="M3.413 0c.943 0 1.796.382 2.414 1 .618.617 1 1.47 1 2.413 0 .943-.382 1.796-1 2.414-.618.618-1.471 1-2.414 1a3.403 3.403 0 0 1-2.413-1 3.403 3.403 0 0 1-1-2.414C0 2.471.382 1.617 1 1c.617-.618 1.47-1 2.413-1zm2.268 1.146a3.196 3.196 0 0 0-2.268-.94c-.885 0-1.687.36-2.267.94-.58.58-.94 1.382-.94 2.267 0 .886.36 1.687.94 2.268.58.58 1.382.939 2.267.939.886 0 1.687-.36 2.268-.94.58-.58.939-1.381.939-2.267 0-.885-.36-1.687-.94-2.267z"/></g><path class="fil33" d="m5.291 3.343-1.435-.829-.122-.07v.651H1.413V3.731H3.734v.652l.122-.07 1.435-.83.122-.07z"/></g></svg>