<svg xmlns="http://www.w3.org/2000/svg" viewBox="0 0 64 64"><g data-name="07-Send"><path style="fill:#2934a3" d="m1 1 15 31L1 63v-9l10-22L1 11V1z"/><path style="fill:#01a3ec" d="M63 32 1 63l15-31h47z"/><path style="fill:#01c1ff" d="M63 32H16L1 1l62 31z"/><path style="fill:#006cbf" d="m1 11 10 21h5L1 1v10z"/><path style="fill:#1c69a1" d="m1 1 15 31L1 63v-9l10-22L1 11V1z"/><path style="fill:#48befd" d="M63 32 1 63l15-31h47z"/><path style="fill:#6bdcff" d="M63 32H16L1 1l62 31z"/><path style="fill:#2a84c9" d="m1 11 10 21h5L1 1v10z"/><path style="fill:none;stroke:#000;stroke-linejoin:round;stroke-width:2px" d="M49 39 1 63l15-31L1 1l10 5M13 7l50 25-12 6M25 32h38M21 32h2M16 32h3"/><path style="fill:none;stroke:#000;stroke-linejoin:round;stroke-width:2px" d="M1 1v10l10 21L1 54v9"/></g></svg>